<?xml version="1.0" encoding="UTF-8" standalone="no"?><!DOCTYPE svg PUBLIC "-//W3C//DTD SVG 1.1//EN" "http://www.w3.org/Graphics/SVG/1.1/DTD/svg11.dtd"><svg width="100%" height="100%" viewBox="0 0 169 166" version="1.1" xmlns="http://www.w3.org/2000/svg" xmlns:xlink="http://www.w3.org/1999/xlink" xml:space="preserve" xmlns:serif="http://www.serif.com/" style="fill-rule:evenodd;clip-rule:evenodd;stroke-linejoin:round;stroke-miterlimit:2;"><path d="M60.238,64.471c23.222,-0 41.156,18.163 41.156,41.155c-0,23.222 -17.704,41.156 -41.156,41.156c-22.991,-0 -40.465,-18.164 -40.465,-41.156c-0,-22.992 17.474,-41.155 40.465,-41.155Zm40.696,99.095l20.003,-0l-0,-116.339l-20.003,0l-0,15.405c-9.197,-9.427 -23.222,-17.014 -41.845,-17.014c-32.419,-0 -59.089,26.44 -59.089,60.008c0,33.568 26.67,59.779 59.089,59.779c18.853,-0 33.108,-7.817 41.845,-17.474l-0,15.635Z" style="fill:#1d51ff;fill-rule:nonzero;"/><path d="M136.573,-0l12.174,-0l-0,51.509l-12.174,0l-0,-51.509Z" style="fill:#1d51ff;"/><rect x="116.905" y="19.667" width="51.509" height="12.174" style="fill:#1d51ff;"/><rect x="136.573" y="19.667" width="12.174" height="12.174" style="fill:#00f;"/></svg>