<?xml version="1.0" encoding="UTF-8" standalone="no"?><!DOCTYPE svg PUBLIC "-//W3C//DTD SVG 1.1//EN" "http://www.w3.org/Graphics/SVG/1.1/DTD/svg11.dtd"><svg width="100%" height="100%" viewBox="0 0 440 97" version="1.1" xmlns="http://www.w3.org/2000/svg" xmlns:xlink="http://www.w3.org/1999/xlink" xml:space="preserve" xmlns:serif="http://www.serif.com/" style="fill-rule:evenodd;clip-rule:evenodd;stroke-linejoin:round;stroke-miterlimit:2;"><path d="M31.932,42.466c12.309,-0 21.816,9.628 21.816,21.816c-0,12.31 -9.385,21.816 -21.816,21.816c-12.188,-0 -21.451,-9.628 -21.451,-21.816c0,-12.188 9.263,-21.816 21.451,-21.816Zm21.572,52.529l10.603,-0l0,-61.67l-10.603,0l0,8.166c-4.875,-4.997 -12.31,-9.019 -22.182,-9.019c-17.184,0 -31.322,14.016 -31.322,31.81c0,17.794 14.138,31.688 31.322,31.688c9.994,-0 17.551,-4.144 22.182,-9.263l0,8.288Z" style="fill:#1d51ff;fill-rule:nonzero;"/><path d="M100.792,86.098c-12.187,-0 -21.45,-9.628 -21.45,-21.816c-0,-12.188 9.263,-21.816 21.45,-21.816c12.31,-0 21.816,9.628 21.816,21.816c0,12.31 -9.384,21.816 -21.816,21.816Zm21.451,8.897l10.725,-0l-0,-83.486l-10.725,0l-0,29.86c-4.875,-4.997 -12.31,-8.897 -22.06,-8.897c-17.185,0 -31.322,14.016 -31.322,31.81c-0,17.794 14.137,31.688 31.322,31.688c9.994,-0 17.428,-4.022 22.06,-9.141l-0,8.166Z" style="fill:#1d51ff;fill-rule:nonzero;"/><path d="M169.287,86.098c-12.187,-0 -21.45,-9.628 -21.45,-21.816c-0,-12.188 9.263,-21.816 21.45,-21.816c12.31,-0 21.816,9.628 21.816,21.816c0,12.31 -9.384,21.816 -21.816,21.816Zm21.451,8.897l10.725,-0l-0,-83.486l-10.725,0l-0,29.86c-4.875,-4.997 -12.31,-8.897 -22.06,-8.897c-17.185,0 -31.323,14.016 -31.323,31.81c0,17.794 14.138,31.688 31.323,31.688c9.994,-0 17.428,-4.022 22.06,-9.141l-0,8.166Z" style="fill:#1d51ff;fill-rule:nonzero;"/><path d="M219.866,22.234l0,-10.725l-10.725,0l0,10.725l10.725,0Zm0,72.761l0,-61.67l-10.725,0l0,61.67l10.725,-0Z" style="fill:#1d51ff;fill-rule:nonzero;"/><path d="M244.242,33.325l-0,-16.941l-10.604,0l0,16.941l-9.14,0l-0,9.507l9.14,-0l0,32.297c0,13.772 8.654,19.866 20.963,19.866l5.972,-0l0,-9.506l-5.85,-0c-5.728,-0 -10.481,-2.316 -10.481,-10.36l-0,-32.297l16.331,-0l0,-9.507l-16.331,0Z" style="fill:#1d51ff;fill-rule:nonzero;"/><path d="M278.611,22.234l-0,-10.725l-10.725,0l-0,10.725l10.725,0Zm-0,72.761l-0,-61.67l-10.725,0l-0,61.67l10.725,-0Z" style="fill:#1d51ff;fill-rule:nonzero;"/><path d="M315.174,32.35c-18.525,0 -32.297,14.016 -32.297,31.81c-0,18.038 13.772,32.054 32.297,32.054c18.404,-0 32.176,-14.138 32.176,-32.054c-0,-17.794 -13.772,-31.81 -32.176,-31.81Zm0,9.75c12.31,0 21.572,9.507 21.572,22.182c0,12.553 -9.506,22.06 -21.816,22.06c-12.431,-0 -21.45,-9.507 -21.45,-22.06c-0,-12.675 9.263,-22.182 21.694,-22.182Z" style="fill:#1d51ff;fill-rule:nonzero;"/><path d="M361.487,33.325l-10.603,0l0,61.67l10.603,-0l0,-34.735c0,-11.213 6.947,-18.038 17.429,-18.038c9.506,0 15.234,6.338 15.234,16.454l0,36.319l10.604,-0l-0,-37.782c-0,-15.113 -9.507,-24.863 -23.888,-24.863c-9.141,0 -15.966,3.9 -19.379,8.775l0,-7.8Z" style="fill:#1d51ff;fill-rule:nonzero;"/><g><path d="M416.038,0l9.009,0l-0,38.114l-9.009,0l0,-38.114Z" style="fill:#1d51ff;"/><rect x="401.485" y="14.553" width="38.114" height="9.008" style="fill:#1d51ff;"/></g><rect x="416.038" y="14.553" width="9.008" height="9.008" style="fill:#00f;"/></svg>